PathFileType	4	(X/Y/Z)	S01_0001_Static_markers.trc
DataRate	CameraRate	NumFrames	NumMarkers	Units	OrigDataRate	OrigDataStartFrame	OrigNumFrames
250.000000	250.000000	4	62	mm	250.000000	76	102
Frame#	Time	HEAD_ANT			R_HEAD			L_HEAD			C7			R_BACK			L_BACK			STERNUM			R_ACROMION			R_HUM_PROX			R_HUM_ANT			R_HUM_POST			R_ELBOW_LAT			R_ELBOW_MED			R_FOREARM			R_WIRST_LAT			R_WRITS_MED			R_HAND			L_ACROMION			L_HUM_PROX			L_HUM_ANT			L_HUM_POST			L_ELBOW_LAT			L_ELBOW_MED			L_FOREARM			L_WRIST_LAT			L_WIRST_MED			L_HAND			R_ILIAC			SACRUM			L_ILIAC			R_GTROCH			R_THIGH__1			R_THIGH_2			R_THIGH_3			R_THIGH_4			R_KNEE_LAT			R_KNEE_MED			R_SHANK_1			R_SHANK_2			R_SHANK_3			R_SHANK_4			R_ANKLE_LAT			R_ANKLE_MED			R_HEEL			R_FOOT_LAT			R_FOOT_MED			L_GTROCH			L_THIGH_1			L_THIGH_2			L_THIGH_3			L_THIGH_4			L_KNEE_LAT			L_KNEE_MED			L_SHANK_1			L_SHANK_2			L_SHANK_3			L_SHANK_4			L_ANKLE_LAT			L_ANKLE_MED			L_HEEL			L_FOOT_LAT			L_FOOT_MED			
		X1	Y1	Z1	X2	Y2	Z2	X3	Y3	Z3	X4	Y4	Z4	X5	Y5	Z5	X6	Y6	Z6	X7	Y7	Z7	X8	Y8	Z8	X9	Y9	Z9	X10	Y10	Z10	X11	Y11	Z11	X12	Y12	Z12	X13	Y13	Z13	X14	Y14	Z14	X15	Y15	Z15	X16	Y16	Z16	X17	Y17	Z17	X18	Y18	Z18	X19	Y19	Z19	X20	Y20	Z20	X21	Y21	Z21	X22	Y22	Z22	X23	Y23	Z23	X24	Y24	Z24	X25	Y25	Z25	X26	Y26	Z26	X27	Y27	Z27	X28	Y28	Z28	X29	Y29	Z29	X30	Y30	Z30	X31	Y31	Z31	X32	Y32	Z32	X33	Y33	Z33	X34	Y34	Z34	X35	Y35	Z35	X36	Y36	Z36	X37	Y37	Z37	X38	Y38	Z38	X39	Y39	Z39	X40	Y40	Z40	X41	Y41	Z41	X42	Y42	Z42	X43	Y43	Z43	X44	Y44	Z44	X45	Y45	Z45	X46	Y46	Z46	X47	Y47	Z47	X48	Y48	Z48	X49	Y49	Z49	X50	Y50	Z50	X51	Y51	Z51	X52	Y52	Z52	X53	Y53	Z53	X54	Y54	Z54	X55	Y55	Z55	X56	Y56	Z56	X57	Y57	Z57	X58	Y58	Z58	X59	Y59	Z59	X60	Y60	Z60	X61	Y61	Z61	X62	Y62	Z62	

77	0.304	435.0984802246094	448.1474304199219	1741.435668945312	506.38134765625	380.6568603515625	1700.207153320312	359.9509582519531	392.6138000488281	1701.09716796875	423.6161804199219	241.682861328125	1533.536499023438	492.1000061035156	169.9299011230469	1336.307983398438	351.9656677246094	173.5880584716797	1337.311157226562	436.9607543945312	420.6459045410156	1374.325317382812	595.7772216796875	307.641845703125	1493.84375	702.5051879882812	264.1297912597656	1351.8076171875	734.0532836914062	328.9644775390625	1275.084716796875	720.414794921875	207.1465759277344	1266.976928710938	757.8741455078125	258.5188903808594	1171.04296875	678.1787109375	253.9496765136719	1149.30322265625	827.7847290039062	352.3263244628906	999.2725830078125	820.6903686523438	400.0259094238281	933.1262817382812	832.9722900390625	324.5284118652344	907.9525756835938	880.932861328125	387.6886901855469	851.0640869140625	262.405517578125	321.6771545410156	1492.404052734375	161.8363494873047	292.1110534667969	1332.460571289062	146.813232421875	357.6421813964844	1256.129638671875	140.9178009033203	235.3261871337891	1253.538696289062	113.8180313110352	287.0401611328125	1155.322021484375	182.1642761230469	255.8262634277344	1145.967651367188	68.05426025390625	390.4345703125	984.9388427734375	94.85866546630859	438.9079284667969	918.7193603515625	54.25395202636719	372.07958984375	903.7813110351562	32.22382354736328	443.9134216308594	847.6566162109375	603.3285522460938	322.3662719726562	1082.09716796875	432.6614990234375	190.313232421875	1061.689453125	257.4355163574219	319.8996276855469	1075.606689453125	612.51708984375	265.9462585449219	942.3262939453125	616.2753295898438	273.7039489746094	664.2645874023438	621.847412109375	331.3941650390625	674.299560546875	594.8621215820312	326.8918762207031	570.4404907226562	600.5418701171875	262.9834289550781	583.4105834960938	588.5825805664062	300.5606689453125	508.8587951660156	477.5217895507812	303.0282287597656	506.6567993164062	621.1976318359375	239.6319580078125	353.4955749511719	606.9558715820312	295.3040771484375	332.1087951660156	593.2186889648438	292.3856506347656	246.7026519775391	602.6729125976562	228.1820983886719	253.179931640625	581.4469604492188	253.059814453125	66.05783843994141	495.8590393066406	275.1734313964844	80.76875305175781	527.601806640625	194.2449645996094	42.03654479980469	628.74609375	352.2666625976562	20.01698684692383	532.5095825195312	415.1705932617188	30.12407302856445	252.8636169433594	273.4430847167969	965.2598876953125	250.7548522949219	325.0979309082031	674.1192016601562	237.5885620117188	273.0948486328125	700.76708984375	263.8349304199219	249.5087890625	600.635498046875	269.9888305664062	312.6144714355469	595.6528930664062	282.1301574707031	270.3092651367188	513.9501342773438	389.5459594726562	274.0396728515625	501.6124877929688	255.1136932373047	250.2989654541016	338.8112182617188	257.4610900878906	192.9995574951172	317.9931030273438	267.8055419921875	192.4533843994141	231.0983734130859	269.2172241210938	257.132568359375	236.5673065185547	276.39501953125	217.3641052246094	69.19749450683594	361.2000732421875	243.5946655273438	79.54219055175781	329.2872619628906	160.9608459472656	41.31798934936523	233.7207183837891	328.0871887207031	19.21917152404785	335.7703247070312	376.8205871582031	26.97257614135742	
78	0.308	435.0204467773438	448.0700073242188	1741.464965820312	506.3004150390625	380.5383911132812	1700.266235351562	359.8629455566406	392.5230407714844	1701.09521484375	423.5611572265625	241.6306610107422	1533.507080078125	492.0407409667969	169.9286651611328	1336.282104492188	351.8705139160156	173.5914154052734	1337.291870117188	436.8731079101562	420.6402893066406	1374.336669921875	595.7366943359375	307.6005249023438	1493.851806640625	702.43603515625	264.1059265136719	1351.792358398438	733.9989624023438	328.9711608886719	1275.100219726562	720.3394775390625	207.1785125732422	1266.9609375	757.8256225585938	258.5096435546875	1171.0625	678.1302490234375	254.0185699462891	1149.29736328125	827.7274780273438	352.4028015136719	999.3045043945312	820.6421508789062	400.0935363769531	933.1427001953125	832.95166015625	324.682373046875	907.9780883789062	880.8825073242188	387.8160095214844	851.1119384765625	262.3682250976562	321.6206359863281	1492.40380859375	161.7821350097656	292.0997924804688	1332.4482421875	146.7898712158203	357.6656494140625	1256.1318359375	140.8750305175781	235.3440856933594	1253.526000976562	113.7546463012695	287.101806640625	1155.332275390625	182.1027069091797	255.8161010742188	1145.917846679688	68.0126953125	390.4949951171875	984.9725952148438	94.82020568847656	438.9883728027344	918.7035522460938	54.19159317016602	372.1857299804688	903.8018798828125	32.18160629272461	444.04833984375	847.6832275390625	603.2676391601562	322.4500427246094	1082.091674804688	432.6056518554688	190.3307647705078	1061.70703125	257.3616943359375	319.9516296386719	1075.596557617188	612.4505615234375	265.9809875488281	942.3311767578125	616.22021484375	273.8163757324219	664.232177734375	621.808349609375	331.444091796875	674.3053588867188	594.80810546875	326.921630859375	570.4260864257812	600.5042114257812	262.9904479980469	583.3975219726562	588.5596313476562	300.5693054199219	508.8852233886719	477.4298706054688	303.0376892089844	506.6041259765625	621.1605224609375	239.6610565185547	353.5123596191406	606.9583129882812	295.3448791503906	332.1321411132812	593.21728515625	292.4178466796875	246.7492523193359	602.6327514648438	228.1601715087891	253.0844116210938	581.4437255859375	253.0419921875	66.07998657226562	495.8445434570312	275.2011108398438	80.83258056640625	527.579833984375	194.2637939453125	42.05098724365234	628.7322998046875	352.2742919921875	19.98846435546875	532.505859375	415.1388549804688	30.11233329772949	252.8001403808594	273.4727783203125	965.2702026367188	250.7159576416016	325.1224060058594	674.0966796875	237.5895538330078	273.0530395507812	700.7490844726562	263.7904357910156	249.5375366210938	600.639892578125	269.9326477050781	312.6394958496094	595.652587890625	282.0828247070312	270.2731323242188	513.9076538085938	389.5056457519531	274.0118103027344	501.64404296875	255.0765686035156	250.2815399169922	338.8180847167969	257.4654541015625	192.9906158447266	317.9850463867188	267.7823791503906	192.5049743652344	231.0753936767578	269.217529296875	257.1420288085938	236.5262908935547	276.4227905273438	217.3587036132812	69.17984771728516	361.1665344238281	243.6069946289062	79.52007293701172	329.2692260742188	160.9654083251953	41.27999496459961	233.7142639160156	328.0991516113281	19.2435245513916	335.7543029785156	376.8216857910156	26.98188018798828	
79	0.312	434.8782348632812	447.9901428222656	1741.485107421875	506.1807556152344	380.48583984375	1700.28564453125	359.7769470214844	392.4833068847656	1701.108764648438	423.4987182617188	241.5997772216797	1533.48291015625	491.9629516601562	169.8814544677734	1336.264282226562	351.8294677734375	173.5699462890625	1337.256469726562	436.8077392578125	420.6017761230469	1374.378051757812	595.6704711914062	307.5304565429688	1493.85205078125	702.38525390625	264.0714721679688	1351.807250976562	733.9617919921875	328.9666442871094	1275.121704101562	720.2543334960938	207.1503601074219	1266.962524414062	757.7813110351562	258.5526123046875	1171.040771484375	678.0816040039062	254.0195007324219	1149.298706054688	827.6851196289062	352.4721069335938	999.3135986328125	820.6222534179688	400.1708984375	933.1708984375	832.9088745117188	324.7624206542969	907.9918823242188	880.829345703125	387.9394226074219	851.1575927734375	262.2883911132812	321.5669860839844	1492.410766601562	161.6724395751953	292.1077880859375	1332.450927734375	146.7323455810547	357.6741027832031	1256.141723632812	140.8080749511719	235.3194885253906	1253.524658203125	113.7064208984375	287.1189575195312	1155.309448242188	182.0286254882812	255.8246154785156	1145.920776367188	67.93663787841797	390.5581665039062	984.9530029296875	94.74417114257812	439.0511474609375	918.7486572265625	54.12709426879883	372.3035278320312	903.8026733398438	32.13018035888672	444.1510314941406	847.70166015625	603.2273559570312	322.5211486816406	1082.144287109375	432.5719299316406	190.3633270263672	1061.6826171875	257.3456420898438	320.0465698242188	1075.607055664062	612.3894653320312	266.040771484375	942.316650390625	615.65283203125	274.10693359375	664.08056640625	621.797607421875	331.4559631347656	674.339111328125	594.743408203125	326.9906311035156	570.4404907226562	600.457275390625	263.0534973144531	583.4095458984375	588.48828125	300.6255493164062	508.8539733886719	477.4176330566406	303.076904296875	506.6564025878906	621.1264038085938	239.6907348632812	353.5062866210938	606.9568481445312	295.315185546875	332.1356201171875	593.1817626953125	292.43310546875	246.7273406982422	602.6109619140625	228.2176818847656	253.1847991943359	581.457763671875	253.0677185058594	66.10805511474609	495.8434143066406	275.2001037597656	80.83028411865234	527.5855102539062	194.2714538574219	42.03912734985352	628.7530517578125	352.2416687011719	20.01834106445312	532.4965209960938	415.1653747558594	30.12017250061035	252.7379302978516	273.5093078613281	965.2681274414062	250.6639556884766	325.1546630859375	674.1119995117188	237.5075531005859	273.1203002929688	700.7598266601562	263.7732849121094	249.5621795654297	600.6160888671875	269.91162109375	312.7012634277344	595.6347045898438	282.0802001953125	270.3022766113281	513.9309692382812	389.484375	274.0497741699219	501.611083984375	255.0464019775391	250.3197326660156	338.8240051269531	257.4494323730469	193.0065612792969	317.9779357910156	267.77587890625	192.5086364746094	231.1100616455078	269.1968688964844	257.1513061523438	236.5315551757812	276.4172668457031	217.3618316650391	69.19351196289062	361.1842651367188	243.6255340576172	79.53682708740234	329.2761840820312	160.9680786132812	41.29247283935547	233.7011871337891	328.0968322753906	19.24295425415039	335.7609558105469	376.8243103027344	27.00125122070312	
80	0.316	434.7988586425781	447.9298095703125	1741.489501953125	506.0993957519531	380.4124145507812	1700.280029296875	359.6818237304688	392.4187927246094	1701.107055664062	423.4732360839844	241.5137939453125	1533.467529296875	491.9128112792969	169.8744201660156	1336.222290039062	351.779052734375	173.5743103027344	1337.232177734375	436.7908020019531	420.5946044921875	1374.380126953125	595.5946044921875	307.5223999023438	1493.859375	702.2993774414062	264.0551147460938	1351.803955078125	733.9072875976562	328.9750366210938	1275.115844726562	720.21142578125	207.133056640625	1266.924926757812	757.7398071289062	258.5850830078125	1171.049926757812	678.0448608398438	254.0706634521484	1149.291381835938	827.6361694335938	352.5846252441406	999.3460693359375	820.5778198242188	400.2736206054688	933.2116088867188	832.8517456054688	324.8210144042969	908.0686645507812	880.7896728515625	388.0210266113281	851.1847534179688	262.2395629882812	321.5559692382812	1492.425048828125	161.6416778564453	292.0780029296875	1332.425903320312	146.6724395751953	357.6666564941406	1256.154907226562	140.7509307861328	235.3506622314453	1253.521240234375	113.6563949584961	287.1353149414062	1155.327026367188	181.9794616699219	255.8053283691406	1145.920654296875	67.90085601806641	390.6332702636719	984.9771728515625	94.72144317626953	439.1398010253906	918.7567138671875	54.08932876586914	372.3521118164062	903.8057861328125	32.08650970458984	444.24365234375	847.7635498046875	603.1483154296875	322.4970092773438	1082.098876953125	432.5205383300781	190.3831939697266	1061.675537109375	257.3070678710938	320.1371765136719	1075.554443359375	612.3626098632812	266.0393676757812	942.33642578125	616.14990234375	273.8877563476562	664.2464599609375	621.7216796875	331.5078125	674.313720703125	594.706298828125	327.0353393554688	570.4747314453125	600.4246826171875	263.0990600585938	583.427001953125	588.4623413085938	300.6358642578125	508.8680419921875	477.3489685058594	303.1950073242188	506.6454467773438	621.1304931640625	239.7282409667969	353.5470275878906	606.9304809570312	295.2975158691406	332.1747741699219	593.1727294921875	292.4539184570312	246.7518615722656	602.6251831054688	228.2204284667969	253.1802978515625	581.4414672851562	253.0672912597656	66.08676910400391	495.8149719238281	275.1844177246094	80.79711151123047	527.5839233398438	194.2554321289062	42.05129623413086	628.758056640625	352.2715148925781	20.00398254394531	532.5325317382812	415.1778564453125	30.11999893188477	252.6992340087891	273.5306396484375	965.2439575195312	250.659423828125	325.1844787597656	674.11669921875	237.4819641113281	273.1132507324219	700.7630004882812	263.7423706054688	249.5565338134766	600.6312255859375	269.8501892089844	312.6755065917969	595.6373901367188	282.0560913085938	270.3349304199219	513.9335327148438	389.4031982421875	274.1183166503906	501.6574401855469	255.0323638916016	250.3382720947266	338.8106079101562	257.4174499511719	193.0330047607422	317.9845581054688	267.7335205078125	192.5234680175781	231.0984954833984	269.2034606933594	257.1315002441406	236.5279846191406	276.411865234375	217.3639984130859	69.20560455322266	361.2048950195312	243.5979766845703	79.57328796386719	329.2738037109375	160.9749755859375	41.32056427001953	233.7005920410156	328.1001586914062	19.23579025268555	335.766845703125	376.82080078125	26.99188232421875	
